<mxfile host="app.diagrams.net" agent="Mozilla/5.0 (Windows NT 10.0; Win64; x64) AppleWebKit/537.36 (KHTML, like Gecko) Chrome/130.0.0.0 Safari/537.36" version="24.8.3">
  <diagram name="페이지-1" id="N9rrFfC1u5D9Dt3VS5DH">
    <mxGraphModel dx="1105" dy="586" grid="1" gridSize="10" guides="1" tooltips="1" connect="1" arrows="1" fold="1" page="1" pageScale="1" pageWidth="827" pageHeight="1169" math="0" shadow="0">
      <root>
        <mxCell id="0" />
        <mxCell id="1" parent="0" />
        <mxCell id="D8WUj3-fb6qy_7PpM4Vy-1" value="" style="rounded=1;whiteSpace=wrap;html=1;" vertex="1" parent="1">
          <mxGeometry x="50" y="130" width="120" height="60" as="geometry" />
        </mxCell>
        <mxCell id="D8WUj3-fb6qy_7PpM4Vy-2" value="" style="rounded=1;whiteSpace=wrap;html=1;" vertex="1" parent="1">
          <mxGeometry x="50" y="250" width="120" height="60" as="geometry" />
        </mxCell>
        <mxCell id="D8WUj3-fb6qy_7PpM4Vy-3" value="" style="rounded=1;whiteSpace=wrap;html=1;" vertex="1" parent="1">
          <mxGeometry x="60" y="140" width="120" height="60" as="geometry" />
        </mxCell>
        <mxCell id="D8WUj3-fb6qy_7PpM4Vy-13" style="edgeStyle=orthogonalEdgeStyle;rounded=0;orthogonalLoop=1;jettySize=auto;html=1;entryX=0;entryY=0.5;entryDx=0;entryDy=0;" edge="1" parent="1" source="D8WUj3-fb6qy_7PpM4Vy-4" target="D8WUj3-fb6qy_7PpM4Vy-11">
          <mxGeometry relative="1" as="geometry" />
        </mxCell>
        <mxCell id="D8WUj3-fb6qy_7PpM4Vy-16" value="날짜 기준&lt;div&gt;데이터 통합&lt;/div&gt;" style="edgeLabel;html=1;align=center;verticalAlign=middle;resizable=0;points=[];" vertex="1" connectable="0" parent="D8WUj3-fb6qy_7PpM4Vy-13">
          <mxGeometry x="-0.3256" y="-2" relative="1" as="geometry">
            <mxPoint as="offset" />
          </mxGeometry>
        </mxCell>
        <mxCell id="D8WUj3-fb6qy_7PpM4Vy-4" value="&lt;font style=&quot;font-size: 11px;&quot;&gt;기상청 api(단위 : 1시간)&lt;/font&gt;" style="rounded=1;whiteSpace=wrap;html=1;" vertex="1" parent="1">
          <mxGeometry x="70" y="150" width="120" height="60" as="geometry" />
        </mxCell>
        <mxCell id="D8WUj3-fb6qy_7PpM4Vy-8" value="" style="rounded=1;whiteSpace=wrap;html=1;" vertex="1" parent="1">
          <mxGeometry x="60" y="260" width="120" height="60" as="geometry" />
        </mxCell>
        <mxCell id="D8WUj3-fb6qy_7PpM4Vy-15" style="edgeStyle=orthogonalEdgeStyle;rounded=0;orthogonalLoop=1;jettySize=auto;html=1;exitX=1;exitY=0.5;exitDx=0;exitDy=0;entryX=0;entryY=0.5;entryDx=0;entryDy=0;" edge="1" parent="1" source="D8WUj3-fb6qy_7PpM4Vy-9" target="D8WUj3-fb6qy_7PpM4Vy-11">
          <mxGeometry relative="1" as="geometry" />
        </mxCell>
        <mxCell id="D8WUj3-fb6qy_7PpM4Vy-9" value="&lt;font style=&quot;font-size: 11px;&quot;&gt;네이버 과거 날씨 크롤링(단위 : 하루)&lt;/font&gt;" style="rounded=1;whiteSpace=wrap;html=1;" vertex="1" parent="1">
          <mxGeometry x="70" y="270" width="120" height="60" as="geometry" />
        </mxCell>
        <mxCell id="D8WUj3-fb6qy_7PpM4Vy-11" value="통합 데이터(csv)" style="rounded=1;whiteSpace=wrap;html=1;" vertex="1" parent="1">
          <mxGeometry x="280" y="210" width="120" height="60" as="geometry" />
        </mxCell>
        <mxCell id="D8WUj3-fb6qy_7PpM4Vy-22" style="edgeStyle=orthogonalEdgeStyle;rounded=0;orthogonalLoop=1;jettySize=auto;html=1;exitX=0.5;exitY=1;exitDx=0;exitDy=0;" edge="1" parent="1" source="D8WUj3-fb6qy_7PpM4Vy-17" target="D8WUj3-fb6qy_7PpM4Vy-21">
          <mxGeometry relative="1" as="geometry" />
        </mxCell>
        <mxCell id="D8WUj3-fb6qy_7PpM4Vy-17" value="전처리" style="rounded=1;whiteSpace=wrap;html=1;" vertex="1" parent="1">
          <mxGeometry x="460" y="210" width="120" height="60" as="geometry" />
        </mxCell>
        <mxCell id="D8WUj3-fb6qy_7PpM4Vy-18" value="" style="endArrow=classic;html=1;rounded=0;exitX=1;exitY=0.5;exitDx=0;exitDy=0;" edge="1" parent="1" source="D8WUj3-fb6qy_7PpM4Vy-11">
          <mxGeometry width="50" height="50" relative="1" as="geometry">
            <mxPoint x="490" y="290" as="sourcePoint" />
            <mxPoint x="460" y="240" as="targetPoint" />
          </mxGeometry>
        </mxCell>
        <mxCell id="D8WUj3-fb6qy_7PpM4Vy-21" value="LSTM 모델" style="ellipse;shape=doubleEllipse;whiteSpace=wrap;html=1;" vertex="1" parent="1">
          <mxGeometry x="470" y="320" width="100" height="60" as="geometry" />
        </mxCell>
        <mxCell id="D8WUj3-fb6qy_7PpM4Vy-24" value="Web&lt;div&gt;Dashboard&lt;/div&gt;" style="rounded=1;whiteSpace=wrap;html=1;" vertex="1" parent="1">
          <mxGeometry x="660" y="210" width="120" height="60" as="geometry" />
        </mxCell>
        <mxCell id="D8WUj3-fb6qy_7PpM4Vy-25" value="Backend&lt;div&gt;Server&lt;/div&gt;" style="rounded=1;whiteSpace=wrap;html=1;" vertex="1" parent="1">
          <mxGeometry x="660" y="320" width="120" height="60" as="geometry" />
        </mxCell>
        <mxCell id="D8WUj3-fb6qy_7PpM4Vy-27" value="" style="endArrow=classic;startArrow=classic;html=1;rounded=0;entryX=0.5;entryY=1;entryDx=0;entryDy=0;exitX=0.5;exitY=0;exitDx=0;exitDy=0;" edge="1" parent="1" source="D8WUj3-fb6qy_7PpM4Vy-25" target="D8WUj3-fb6qy_7PpM4Vy-24">
          <mxGeometry width="50" height="50" relative="1" as="geometry">
            <mxPoint x="490" y="290" as="sourcePoint" />
            <mxPoint x="540" y="240" as="targetPoint" />
          </mxGeometry>
        </mxCell>
        <mxCell id="D8WUj3-fb6qy_7PpM4Vy-28" value="" style="endArrow=classic;html=1;rounded=0;exitX=1;exitY=0.5;exitDx=0;exitDy=0;" edge="1" parent="1" source="D8WUj3-fb6qy_7PpM4Vy-21" target="D8WUj3-fb6qy_7PpM4Vy-25">
          <mxGeometry width="50" height="50" relative="1" as="geometry">
            <mxPoint x="490" y="290" as="sourcePoint" />
            <mxPoint x="540" y="240" as="targetPoint" />
          </mxGeometry>
        </mxCell>
      </root>
    </mxGraphModel>
  </diagram>
</mxfile>
